<svg width="274" height="68" viewBox="0 0 274 68" fill="none" xmlns="http://www.w3.org/2000/svg">
<path d="M32.8798 0.783394C32.8798 1.48797 32.8015 1.56625 32.0969 1.56625C31.3924 1.56625 31.3141 1.64454 31.3141 2.34911C31.3141 3.05368 31.2358 3.13197 30.5312 3.13197H29.7484V4.69768V6.26339H28.9655H28.1827V7.82911V9.39482H27.3998H26.6169V10.9605V12.5263H25.8341H25.0512V14.8748V17.2234H24.2684H23.4855V21.9205V26.6177H22.7027C21.9981 26.6177 21.9198 26.696 21.9198 27.4005V28.1834H20.3541H18.7884V29.7491V31.3148H18.0055H17.2227V36.7948V42.2748H18.0055C18.7101 42.2748 18.7884 42.1965 18.7884 41.492C18.7884 40.7874 18.8667 40.7091 19.5712 40.7091C20.2758 40.7091 20.3541 40.6308 20.3541 39.9263C20.3541 39.2217 20.4324 39.1434 21.1369 39.1434C21.8415 39.1434 21.9198 39.0651 21.9198 38.3605C21.9198 37.656 21.9981 37.5777 22.7027 37.5777C23.4072 37.5777 23.4855 37.656 23.4855 38.3605C23.4855 39.0651 23.5638 39.1434 24.2684 39.1434C24.9729 39.1434 25.0512 39.2217 25.0512 39.9263V40.7091H27.3998H29.7484V39.9263C29.7484 39.2217 29.8267 39.1434 30.5312 39.1434C31.2358 39.1434 31.3141 39.2217 31.3141 39.9263C31.3141 40.6308 31.3924 40.7091 32.0969 40.7091H32.8798V43.0577V45.4062H33.6627C34.3672 45.4062 34.4455 45.328 34.4455 44.6234C34.4455 43.9188 34.5238 43.8405 35.2284 43.8405H36.0112V41.492V39.1434H36.7941H37.5769V36.7948V34.4463H38.3598C39.0644 34.4463 39.1427 34.368 39.1427 33.6634C39.1427 32.9588 39.0644 32.8805 38.3598 32.8805C37.6552 32.8805 37.5769 32.8023 37.5769 32.0977V31.3148H36.0112H34.4455V30.532C34.4455 29.8274 34.5238 29.7491 35.2284 29.7491H36.0112V26.6177V23.4863H36.7941H37.5769V13.3091V3.13197H36.7941H36.0112V1.56625V0.000536606H34.4455H32.8798V0.783394ZM32.8798 8.61197V10.9605H32.0969H31.3141V14.092V17.2234H30.5312H29.7484V21.1377V25.052H28.9655H28.1827V28.9663V32.8805H27.3998H26.6169V34.4463V36.012H25.8341H25.0512V29.7491V23.4863H25.8341H26.6169V20.3548V17.2234H27.3998H28.1827V14.8748V12.5263H28.9655H29.7484V10.9605V9.39482H30.5312H31.3141V7.82911V6.26339H32.0969H32.8798V8.61197Z" fill="#3C3C3C"/>
<path d="M21.92 7.04633V7.82919H18.7886H15.6571V8.61205C15.6571 9.31662 15.5789 9.39491 14.8743 9.39491C14.1697 9.39491 14.0914 9.47319 14.0914 10.1778V10.9606H12.5257H10.96V11.7435C10.96 12.448 10.8817 12.5263 10.1771 12.5263C9.47257 12.5263 9.39429 12.6046 9.39429 13.3092C9.39429 14.0138 9.316 14.092 8.61143 14.092C7.90686 14.092 7.82857 14.1703 7.82857 14.8749C7.82857 15.5795 7.75029 15.6578 7.04571 15.6578C6.34114 15.6578 6.26286 15.736 6.26286 16.4406C6.26286 17.1452 6.18457 17.2235 5.48 17.2235C4.77543 17.2235 4.69714 17.3018 4.69714 18.0063C4.69714 18.7109 4.61886 18.7892 3.91429 18.7892H3.13143V20.3549V21.9206H2.34857H1.56571V23.4863V25.052H0.782857H0V34.4463V43.8406H0.782857H1.56571V45.4063V46.972H2.34857H3.13143V48.5378V50.1035H3.91429C4.61886 50.1035 4.69714 50.1818 4.69714 50.8863C4.69714 51.5909 4.77543 51.6692 5.48 51.6692H6.26286V53.2349V54.8006H7.82857H9.39429V55.5835C9.39429 56.288 9.47257 56.3663 10.1771 56.3663C10.8817 56.3663 10.96 56.4446 10.96 57.1492C10.96 57.8538 11.0383 57.932 11.7429 57.932C12.4474 57.932 12.5257 58.0103 12.5257 58.7149V59.4978H14.0914H15.6571V60.2806C15.6571 60.9852 15.7354 61.0635 16.44 61.0635H17.2229V57.1492V53.2349H16.44C15.7354 53.2349 15.6571 53.1566 15.6571 52.452V51.6692H14.0914H12.5257V50.8863C12.5257 50.1818 12.4474 50.1035 11.7429 50.1035C11.0383 50.1035 10.96 50.0252 10.96 49.3206C10.96 48.616 10.8817 48.5378 10.1771 48.5378H9.39429V46.972V45.4063H8.61143H7.82857V43.8406V42.2749H7.04571H6.26286V34.4463V26.6178H7.04571H7.82857V25.052V23.4863H8.61143C9.316 23.4863 9.39429 23.408 9.39429 22.7035C9.39429 21.9989 9.47257 21.9206 10.1771 21.9206H10.96V20.3549V18.7892H12.5257H14.0914V18.0063C14.0914 17.3018 14.1697 17.2235 14.8743 17.2235C15.5789 17.2235 15.6571 17.1452 15.6571 16.4406V15.6578H17.2229H18.7886V14.8749V14.092H20.3543H21.92V12.5263V10.9606H22.7029H23.4857V8.61205V6.26348H22.7029C21.9983 6.26348 21.92 6.34176 21.92 7.04633Z" fill="#3C3C3C"/>
<path d="M42.274 14.8746V18.7889H43.0569C43.7615 18.7889 43.8398 18.8672 43.8398 19.5718C43.8398 20.2763 43.918 20.3546 44.6226 20.3546H45.4055V21.9203V23.486H46.1883H46.9712V25.0518V26.6175H47.754H48.5369V29.7489V32.8803H49.3198H50.1026V34.446V36.0118H49.3198H48.5369V39.1432V42.2746H47.754H46.9712V43.8403V45.406H46.1883H45.4055V46.9718V48.5375H44.6226C43.918 48.5375 43.8398 48.6158 43.8398 49.3203C43.8398 50.0249 43.7615 50.1032 43.0569 50.1032C42.3523 50.1032 42.274 50.1815 42.274 50.886C42.274 51.5906 42.1958 51.6689 41.4912 51.6689C40.7866 51.6689 40.7083 51.7472 40.7083 52.4518V53.2346H39.1426H37.5769V54.0175V54.8003H35.2283H32.8798V55.5832V56.366H31.314H29.7483V57.1489C29.7483 57.8535 29.67 57.9318 28.9655 57.9318H28.1826V60.2803V62.6289H31.314H34.4455V61.846V61.0632H36.794H39.1426V60.2803V59.4975H40.7083H42.274V58.7146C42.274 58.01 42.3523 57.9318 43.0569 57.9318C43.7615 57.9318 43.8398 57.8535 43.8398 57.1489V56.366H45.4055H46.9712V55.5832C46.9712 54.8786 47.0495 54.8003 47.754 54.8003C48.4586 54.8003 48.5369 54.722 48.5369 54.0175C48.5369 53.3129 48.6152 53.2346 49.3198 53.2346H50.1026V51.6689V50.1032H50.8855C51.59 50.1032 51.6683 50.0249 51.6683 49.3203C51.6683 48.6158 51.7466 48.5375 52.4512 48.5375H53.234V46.1889V43.8403H54.0169H54.7998V40.7089V37.5775H55.5826H56.3655V34.446V31.3146H55.5826H54.7998V28.1832V25.0518H54.0169H53.234V23.486V21.9203H52.4512H51.6683V20.3546V18.7889H50.8855C50.1809 18.7889 50.1026 18.7106 50.1026 18.006C50.1026 17.3015 50.0243 17.2232 49.3198 17.2232C48.6152 17.2232 48.5369 17.1449 48.5369 16.4403C48.5369 15.7358 48.4586 15.6575 47.754 15.6575C47.0495 15.6575 46.9712 15.5792 46.9712 14.8746C46.9712 14.1701 46.8929 14.0918 46.1883 14.0918C45.4838 14.0918 45.4055 14.0135 45.4055 13.3089C45.4055 12.6043 45.3272 12.5261 44.6226 12.5261C43.918 12.5261 43.8398 12.4478 43.8398 11.7432C43.8398 11.0386 43.7615 10.9603 43.0569 10.9603H42.274V14.8746Z" fill="#3C3C3C"/>
<path d="M155.006 20.3553V25.0525H161.269H167.532V25.8354C167.532 26.5399 167.453 26.6182 166.749 26.6182H165.966V28.1839V29.7496H165.183H164.4V31.3154V32.8811H163.617H162.834V34.4468V36.0125H162.052H161.269V37.5782V39.1439H160.486H159.703V40.7096V42.2754H158.92H158.137V43.8411V45.4068H157.354H156.572V49.3211V53.2354H169.097H181.623V49.3211V45.4068H176.143H170.663V43.8411V42.2754H171.446H172.229V40.7096V39.1439H173.012H173.794V37.5782V36.0125H174.577H175.36V34.4468V32.8811H176.143H176.926V30.5325V28.1839H177.709H178.492V26.6182V25.0525H179.274H180.057V20.3553V15.6582H167.532H155.006V20.3553Z" fill="#3C3C3C"/>
<path d="M191.017 16.4408V17.2236H189.451H187.886V18.0065C187.886 18.7111 187.807 18.7894 187.103 18.7894H186.32V20.3551V21.9208H185.537H184.754V24.2694V26.6179H183.971H183.188V34.4465V42.2751H183.971H184.754V44.6236V46.9722H185.537H186.32V48.5379V50.1036H187.103C187.807 50.1036 187.886 50.1819 187.886 50.8865C187.886 51.5911 187.964 51.6694 188.668 51.6694C189.373 51.6694 189.451 51.7476 189.451 52.4522V53.2351H192.583H195.714V54.0179V54.8008H198.063H200.411V54.0179V53.2351H203.543H206.674V52.4522C206.674 51.7476 206.752 51.6694 207.457 51.6694C208.162 51.6694 208.24 51.5911 208.24 50.8865C208.24 50.1819 208.318 50.1036 209.023 50.1036H209.806V48.5379V46.9722H210.588H211.371V45.4065V43.8408H212.154H212.937V34.4465V25.0522H212.154H211.371V23.4865V21.9208H210.588H209.806V20.3551V18.7894H209.023C208.318 18.7894 208.24 18.7111 208.24 18.0065V17.2236H206.674H205.108V16.4408V15.6579H198.063H191.017V16.4408ZM200.411 25.8351C200.411 26.5396 200.49 26.6179 201.194 26.6179H201.977V35.2294V43.8408H201.194C200.49 43.8408 200.411 43.9191 200.411 44.6236V45.4065H198.063H195.714V44.6236C195.714 43.9191 195.636 43.8408 194.931 43.8408H194.148V35.2294V26.6179H194.931C195.636 26.6179 195.714 26.5396 195.714 25.8351V25.0522H198.063H200.411V25.8351Z" fill="#3C3C3C"/>
<path d="M217.635 34.4468V53.2354H222.332H227.029V46.9725V40.7096H227.812C228.516 40.7096 228.595 40.7879 228.595 41.4925C228.595 42.1971 228.673 42.2754 229.378 42.2754H230.16V44.6239V46.9725H230.943H231.726V50.1039V53.2354H237.206H242.686V50.1039V46.9725H241.903H241.12V44.6239V42.2754H240.338H239.555V39.1439V36.0125H240.338H241.12V34.4468V32.8811H241.903H242.686V27.4011V21.9211H241.903H241.12V20.3553V18.7896H240.338C239.633 18.7896 239.555 18.7113 239.555 18.0068V17.2239H237.989H236.423V16.4411V15.6582H227.029H217.635V34.4468ZM231.726 28.9668V32.8811H229.378H227.029V28.9668V25.0525H229.378H231.726V28.9668Z" fill="#3C3C3C"/>
<path d="M247.383 34.4468V53.2354H252.08H256.777V46.1896V39.1439H257.56H258.343V40.7096V42.2754H259.126H259.909V45.4068V48.5382H260.691H261.474V50.8868V53.2354H267.737H274V52.4525C274 51.7479 273.922 51.6696 273.217 51.6696H272.434V49.3211V46.9725H271.651H270.869V44.6239V42.2754H270.086H269.303V40.7096V39.1439H268.52H267.737V35.2296V31.3154H268.52H269.303V29.7496V28.1839H270.086H270.869V25.8354V23.4868H271.651H272.434V21.1382V18.7896H273.217H274V17.2239V15.6582H268.52H263.04V17.2239V18.7896H262.257H261.474V21.1382V23.4868H260.691H259.909V25.8354V28.1839H259.126H258.343V29.7496V31.3154H257.56H256.777V23.4868V15.6582H252.08H247.383V34.4468Z" fill="#3C3C3C"/>
<path d="M70.457 35.2296V53.2354H74.3713H78.2856V46.1896V39.1439H79.8513H81.417V40.7096V42.2754H82.1999H82.9827V43.8411V45.4068H83.7656H84.5485V46.9725V48.5382H85.3313H86.1142V50.8868V53.2354H90.0285H93.9427V50.8868V48.5382H93.1599H92.377V46.9725V45.4068H91.5942H90.8113V43.8411V42.2754H90.0285H89.2456V39.1439V36.0125H90.0285C90.733 36.0125 90.8113 35.9342 90.8113 35.2296C90.8113 34.5251 90.8896 34.4468 91.5942 34.4468H92.377V32.8811V31.3154H93.1599H93.9427V27.4011V23.4868H93.1599H92.377V21.9211V20.3554H91.5942C90.8896 20.3554 90.8113 20.2771 90.8113 19.5725C90.8113 18.8679 90.733 18.7896 90.0285 18.7896C89.3239 18.7896 89.2456 18.7114 89.2456 18.0068V17.2239H79.8513H70.457V35.2296ZM82.9827 22.7039V23.4868H84.5485H86.1142V27.4011V31.3154H85.3313C84.6267 31.3154 84.5485 31.3936 84.5485 32.0982V32.8811H81.417H78.2856V27.4011V21.9211H80.6342H82.9827V22.7039Z" fill="#3C3C3C"/>
<path d="M98.6396 35.2296V53.2354H108.817H118.994V50.1039V46.9725H112.731H106.468V42.2754V37.5782H111.948H117.428V34.4468V31.3154H111.948H106.468V26.6182V21.9211H112.731H118.994V19.5725V17.2239H108.817H98.6396V35.2296Z" fill="#3C3C3C"/>
<path d="M123.691 20.3554V23.4868H124.474H125.257V25.8354V28.1839H126.04H126.823V31.3154V34.4468H127.606H128.389V36.7954V39.1439H129.171H129.954V42.2754V45.4068H130.737H131.52V47.7554V50.1039H132.303H133.086V51.6696V53.2354H137H140.914V50.8868V48.5382H141.697H142.48V46.1896V43.8411H143.263H144.046V40.7096V37.5782H144.829H145.611V35.2296V32.8811H146.394H147.177V29.7496V26.6182H147.96H148.743V24.2696V21.9211H149.526H150.309V19.5725V17.2239H146.394H142.48V19.5725V21.9211H141.697H140.914V25.8354V29.7496H140.131H139.349V32.8811V36.0125H138.566H137.783V39.1439V42.2754H137H136.217V39.9268V37.5782H135.434H134.651V34.4468V31.3154H133.869H133.086V27.4011V23.4868H132.303H131.52V20.3554V17.2239H127.606H123.691V20.3554Z" fill="#3C3C3C"/>
<path d="M21.9202 48.5376V53.2347H21.1373H20.3545V60.2805V67.3262H21.1373H21.9202V65.7605V64.1947H22.7031H23.4859V61.8462V59.4976H24.2688H25.0516V57.9319V56.3662H25.8345H26.6173V53.2347V50.1033H27.4002H28.1831V46.9719V43.8405H27.4002C26.6956 43.8405 26.6173 43.9187 26.6173 44.6233C26.6173 45.3279 26.5391 45.4062 25.8345 45.4062C25.1299 45.4062 25.0516 45.3279 25.0516 44.6233V43.8405H23.4859H21.9202V48.5376Z" fill="#3C3C3C"/>
</svg>
